inDegrees=yes
name=ik_lifting_orientations
DataType=double
version=3
OpenSimVersion=4.5-2024-01-10-34fd6af
endheader
time	pelvis_tilt	pelvis_list	pelvis_rotation	pelvis_tx	pelvis_ty	pelvis_tz	hip_flexion_r	hip_adduction_r	hip_rotation_r	knee_angle_r	knee_angle_r_beta	ankle_angle_r	subtalar_angle_r	mtp_angle_r	hip_flexion_l	hip_adduction_l	hip_rotation_l	knee_angle_l	knee_angle_l_beta	ankle_angle_l	subtalar_angle_l	mtp_angle_l	lumbar_extension	lumbar_bending	lumbar_rotation	arm_flex_r	arm_add_r	arm_rot_r	elbow_flex_r	pro_sup_r	wrist_flex_r	wrist_dev_r	arm_flex_l	arm_add_l	arm_rot_l	elbow_flex_l	pro_sup_l	wrist_flex_l	wrist_dev_l
2.32	-1.071186063365751	-0.9050023411069829	-94.84697400386513	0	0.9399999998679526	0	45.41148469513033	-10.70533264811472	0	59.68974581816527	1.041782594205501	-5.266774065601021	0	0	45.41148469513033	-10.70533264811472	0	59.68974581816527	1.041782594205501	-5.266774065601021	0	0	-4.835469764123311	2.925845684455387	24.74689643154823	104.5174818084262	9.983396636045573	22.41150678578223	0.01237680678615011	2.860668377051818	0	0	0	-10.9346756856981	0	87.2251604918188	2.860668377051818	0	0
2.33	-1.266571033258147	-1.077363641213898	-95.39700449256122	0	0.9399999998679526	0	45.41130945258094	-10.70428080243241	0	59.68984939995067	1.041784402048701	-5.266255078805511	0	0	45.41130945258094	-10.70428080243241	0	59.68984939995067	1.041784402048701	-5.266255078805511	0	0	-4.982626259850466	3.072638344816791	24.46469309340655	105.4816547268296	13.17292858908333	22.83747217368693	0.0117753193173385	2.859820461962838	0	0	0	-10.93556227177541	0	87.22598286863661	2.859820461962838	0	0
2.34	-1.435413973840789	-1.190295530968303	-95.68173050818484	0	0.9399999998679526	0	45.41118453383504	-10.7035332892747	0	59.68992337478958	1.041785693153203	-5.265886536627736	0	0	45.41118453383504	-10.7035332892747	0	59.68992337478958	1.041785693153203	-5.265886536627736	0	0	-4.790617739415874	3.043947619652624	23.96752570429957	105.8977026026472	14.84821006655685	22.7815135184696	0.01247754074876548	2.859215561024989	0	0	0	-10.93619517468858	0	87.2265695507773	2.859215561024989	0	0
2.35	-1.596300395381453	-1.315324396680067	-95.970195704408	0	0.9399999998679526	0	45.41105847488929	-10.70278351296345	0	59.68999832847777	1.041787001341849	-5.265517402725798	0	0	45.41105847488929	-10.70278351296345	0	59.68999832847777	1.041787001341849	-5.265517402725798	0	0	-4.507972002945778	2.779144502180524	26.74862693859901	105.8146264962884	12.27578631580805	22.91564169768649	0.01456945667315692	2.858604134371659	0	0	0	-10.93683577797277	0	87.22716256240251	2.858604134371659	0	0
2.36	-1.658039421012679	-1.363793799824183	-95.78236314476308	0	0.9399999998679526	0	45.41095964205739	-10.70219113245742	0	59.69005670913358	1.041788020276512	-5.265225364791626	0	0	45.41095964205739	-10.70219113245742	0	59.69005670913358	1.041788020276512	-5.265225364791626	0	0	-4.275004749573912	2.715624291631475	25.93904900492333	105.6165551727345	12.27253621933103	22.49754998905263	0.0188685477508739	2.858125944750329	0	0	0	-10.93733572441253	0	87.22762634948285	2.858125944750329	0	0
2.37	-1.798190845133419	-1.471477991708825	-96.09581351518887	0	0.9399999998679526	0	45.41084450310873	-10.70150730233832	0	59.6901252100831	1.041789215843622	-5.264888858952072	0	0	45.41084450310873	-10.70150730233832	0	59.6901252100831	1.041789215843622	-5.264888858952072	0	0	-4.363646944089037	2.801582830885157	26.1603655609601	105.8206696607069	12.80990368246051	22.46504949784215	0.02307853452448159	2.857567305474857	0	0	0	-10.93792117315719	0	87.22816816365294	2.857567305474857	0	0
2.38	-1.997471574673977	-1.612989873370042	-96.81707419889516	0	0.9399999998679526	0	45.41074309343866	-10.7009122935402	0	59.69018610450807	1.041790278651834	-5.264596784005612	0	0	45.41074309343866	-10.7009122935402	0	59.69018610450807	1.041790278651834	-5.264596784005612	0	0	-4.410154839308707	2.854648933516302	26.74503457865489	105.991089428648	13.35730417299783	22.32059803957642	0.02968296250620831	2.857073491693413	0	0	0	-10.93844027659203	0	87.22864710530284	2.857073491693413	0	0
2.39	-2.246410410605864	-1.796058827046083	-98.15215249302514	0	0.9399999998679526	0	45.41060392987015	-10.70008823661218	0	59.69026899916448	1.041791725436521	-5.264191657316201	0	0	45.41060392987015	-10.70008823661218	0	59.69026899916448	1.041791725436521	-5.264191657316201	0	0	-4.138630696429902	2.683948464889799	27.8185970606226	106.3347175958763	14.00414309613481	21.66806273486881	0.0373448417814781	2.856397881853219	0	0	0	-10.93914863410298	0	87.22930236724933	2.856397881853219	0	0
2.4	-2.558796651975972	-1.980665366212185	-99.77891078715726	0	0.9399999998679526	0	45.41045926686424	-10.69922871952127	0	59.69035487984029	1.041793224337077	-5.263768915037363	0	0	45.41045926686424	-10.69922871952127	0	59.69035487984029	1.041793224337077	-5.263768915037363	0	0	-4.019797936781624	2.641261780645467	29.07256741164164	107.1653943878138	15.36154850366477	21.08163855267068	0.04036219354693173	2.855696425810431	0	0	0	-10.93988330789372	0	87.22998269670821	2.855696425810431	0	0
2.41	-2.750940708126022	-2.073637130109967	-101.1918342627997	0	0.9399999998679526	0	45.41035003063686	-10.698578632651	0	59.69041960928322	1.041794354078979	-5.263449134060251	0	0	45.41035003063686	-10.698578632651	0	59.69041960928322	1.041794354078979	-5.263449134060251	0	0	-4.000442781737495	2.623563036198298	30.25970794027081	108.253753747697	17.31207631800171	20.89518225970651	0.03793592073084837	2.855167091906328	0	0	0	-10.94043739060086	0	87.23049608793259	2.855167091906328	0	0
2.42	-2.829278483785075	-2.121418617352516	-102.0509301362368	0	0.9399999998679526	0	45.41020195761067	-10.69769585527467	0	59.69050718093538	1.041795882492641	-5.263014817883197	0	0	45.41020195761067	-10.69769585527467	0	59.69050718093538	1.041795882492641	-5.263014817883197	0	0	-3.666278484624972	2.441068679339766	30.84024193569069	109.439760721726	19.14035139749862	20.14579355076164	0.03510991022220449	2.854450053295597	0	0	0	-10.94118750066145	0	87.23119153035573	2.854450053295597	0	0
2.43	-2.944297816985927	-2.194275823970309	-102.4449014996713	0	0.9399999998679526	0	45.41004379847595	-10.69675377868301	0	59.69060072121488	1.041797515078501	-5.262551507143599	0	0	45.41004379847595	-10.69675377868301	0	59.69060072121488	1.041797515078501	-5.262551507143599	0	0	-3.008887835565021	2.177173182616204	30.83889353066446	110.590049079974	20.51698066980676	18.78402302021608	0.03437220858481144	2.853684098275524	0	0	0	-10.94198882804161	0	87.23193441592545	2.853684098275524	0	0
2.44	-3.109837304275529	-2.27908720653482	-102.7005396775957	0	0.9399999998679526	0	45.40991923215279	-10.69601289404924	0	59.69067443649266	1.041798801652808	-5.262187317540663	0	0	45.40991923215279	-10.69601289404924	0	59.69067443649266	1.041798801652808	-5.262187317540663	0	0	-2.60553387163027	2.080879094457008	30.64938442462499	111.8577035639326	22.55497623516895	17.82300834356652	0.03197635249433041	2.853080651810083	0	0	0	-10.94262028658837	0	87.23251968752207	2.853080651810083	0	0
2.45	-3.242087766090899	-2.385963515159891	-102.9845337522303	0	0.9399999998679526	0	45.40972318281131	-10.69484583342528	0	59.69079028799299	1.041800823642932	-5.261613676385162	0	0	45.40972318281131	-10.69484583342528	0	59.69079028799299	1.041800823642932	-5.261613676385162	0	0	-2.444493917659013	2.028570964161911	30.77605338173528	113.5172302916734	25.13853079548378	17.1615054404715	0.05172762094800022	2.852131350529413	0	0	0	-10.94361323437791	0	87.2334403971989	2.852131350529413	0	0
2.46	-3.436131368788011	-2.520100427691972	-103.0316803211325	0	0.9399999998679526	0	45.4085830967737	-10.68983629074092	0	59.69161773864491	1.041815265381206	-5.259306309355559	0	0	45.4085830967737	-10.68983629074092	0	59.69161773864491	1.041815265381206	-5.259306309355559	0	0	-1.968841660280928	1.891913850158662	30.62900027216608	115.6966022571512	27.69505666610435	15.66541044645459	0.09643224400192943	2.846140386673173	0	0	0	-10.95030646279812	0	87.23925106910438	2.846140386673173	0	0
2.47	-3.677060689952159	-2.706225619525091	-102.5473552326258	0	0.9399999998679526	0	45.40705853587458	-10.68336695830483	0	59.69273876940323	1.041834831058954	-5.256356966026305	0	0	45.40705853587458	-10.68336695830483	0	59.69273876940323	1.041834831058954	-5.256356966026305	0	0	-1.530027558647925	1.808473193302214	29.8868593353124	117.3706784439549	29.66067173350196	14.42346091999924	1.1898394322223	2.838074301567171	0	0	0	-10.95936244258081	0	87.2470744290336	2.838074301567171	0	0
2.48	-3.927327846306092	-2.898436383165013	-102.1233470424348	0	0.9399999998679526	0	45.40440802365143	-10.6724722274755	0	59.69471804813574	1.041869375989652	-5.251432272783036	0	0	45.40440802365143	-10.6724722274755	0	59.69471804813574	1.041869375989652	-5.251432272783036	0	0	-1.660608306625817	1.985752838023922	29.45746051734609	119.0391879544592	32.09381003642836	13.53007237190978	3.444457880350261	2.823954874726307	0	0	0	-10.97529524459427	0	87.26076900088981	2.823954874726307	0	0
2.49	-4.216093751456366	-3.119803368437056	-101.8183342171049	0	0.9399999998679526	0	45.40290033194771	-10.66617269740173	0	59.69582757476297	1.041888740882435	-5.248575440676468	0	0	45.40290033194771	-10.66617269740173	0	59.69582757476297	1.041888740882435	-5.248575440676468	0	0	-2.415054089168752	2.465070605155479	29.46513025575177	121.015724195822	34.07562289614243	13.04322918573345	4.889857024484389	2.815957407215415	0	0	0	-10.98429001163794	0	87.26852581383308	2.815957407215415	0	0
2.5	-4.420326786090054	-3.310776104653756	-101.2114626898001	0	0.9399999998679526	0	45.39901394041076	-10.65032019633699	0	59.69870699828068	1.041938996303379	-5.241445049314979	0	0	45.39901394041076	-10.65032019633699	0	59.69870699828068	1.041938996303379	-5.241445049314979	0	0	-3.769046958016969	3.173506982854791	29.11591530337674	121.930476595611	36.20041813052718	13.64363886155396	8.407747480893734	2.79525717763332	0	0	0	-11.00763852626708	0	87.28860316907002	2.79525717763332	0	0
2.51	-4.744112857861488	-3.531651200887384	-100.8437522069881	0	0.9399999998679526	0	45.39422701904587	-10.63104111967003	0	59.70224814672596	1.042000801003051	-5.232814536055246	0	0	45.39422701904587	-10.63104111967003	0	59.70224814672596	1.042000801003051	-5.232814536055246	0	0	-4.725431908969397	3.831642423499198	28.87355596266466	121.5395934193568	38.22286750381191	14.8140035804519	14.00104612070053	2.76971441403274	0	0	0	-11.03648192257056	0	87.31337735732245	2.76971441403274	0	0
